<svg xmlns="http://www.w3.org/2000/svg"
 viewBox="0 0 2198 658"
 preserveAspectRatio="xMidYMid meet">

<g transform="translate(0.000000,658.000000) scale(0.100000,-0.100000)"
fill="#000000" stroke="none">
<path fill="#4a3847" d="M3160 6294 c-453 -26 -925 -164 -1313 -387 -254 -145 -442 -289 -641
-491 -490 -500 -781 -1160 -837 -1901 -14 -188 0 -481 33 -685 120 -748 519
-1420 1106 -1862 417 -314 969 -526 1485 -569 169 -14 482 -7 645 15 403 53
851 192 1290 402 l152 73 0 325 c0 179 -4 326 -8 326 -4 0 -25 -23 -46 -50
-73 -96 -266 -261 -445 -383 -41 -28 -134 -78 -205 -113 -171 -81 -466 -187
-482 -172 -2 3 66 140 152 304 87 164 435 859 774 1544 550 1109 844 1694
1061 2106 38 72 69 138 69 147 0 15 -38 17 -412 19 l-413 3 -3 456 -2 456
-113 53 c-420 197 -913 334 -1327 369 -145 12 -426 20 -520 15z m569 -291
c258 -37 516 -145 734 -306 104 -76 270 -238 352 -342 99 -126 256 -397 240
-414 -4 -3 -507 -7 -1118 -8 -893 -2 -1113 -5 -1124 -15 -18 -18 -317 -1014
-309 -1033 6 -15 60 -21 91 -9 9 4 30 34 47 68 85 170 243 291 453 348 78 21
99 22 950 28 479 4 945 11 1038 15 128 6 167 5 167 -4 0 -17 -86 -163 -288
-486 -412 -658 -1411 -2326 -1677 -2799 l-102 -181 -39 -3 c-95 -8 -386 83
-599 188 -340 167 -604 404 -827 745 -266 405 -399 868 -415 1441 -20 766 192
1439 624 1980 377 472 901 769 1418 803 135 9 248 4 384 -16z"/>
<path fill="#4a3847" d="M21182 5082 c-7 -39 -32 -107 -58 -162 -39 -80 -60 -109 -133 -180
-99 -99 -202 -156 -336 -189 -54 -13 -70 -19 -48 -20 52 -2 183 -48 252 -88
83 -49 195 -161 244 -244 40 -69 86 -200 88 -252 1 -22 7 -6 20 48 33 134 90
237 189 336 72 73 100 94 180 132 53 26 126 52 164 60 l68 13 -84 21 c-261 65
-445 247 -510 507 -11 45 -21 82 -22 83 -1 1 -7 -28 -14 -65z"/>
<path d="M6250 4882 l0 -51 58 -6 c31 -3 89 -13 128 -21 84 -17 142 -61 168
-124 34 -86 37 -212 34 -1580 -3 -1182 -6 -1352 -20 -1402 -34 -124 -81 -155
-275 -180 l-93 -11 0 -46 0 -46 873 0 c656 1 892 4 952 14 296 47 542 158 700
316 145 144 221 309 246 528 27 241 -51 481 -209 642 -170 172 -417 281 -755
331 -65 10 -117 20 -117 23 0 4 30 15 68 25 195 55 371 150 498 269 124 116
195 234 240 397 24 88 24 271 1 360 -83 308 -332 502 -742 577 -78 14 -195 16
-885 18 -437 1 -812 5 -832 9 l-38 8 0 -50z m1529 -82 c157 -44 247 -118 319
-265 96 -195 110 -585 30 -844 -59 -193 -179 -317 -361 -378 -78 -25 -95 -27
-319 -31 l-238 -4 0 623 c1 677 5 739 54 823 30 51 87 82 174 96 85 13 256 3
341 -20z m13 -1625 c402 -60 604 -295 625 -726 14 -299 -58 -545 -206 -702
-143 -151 -331 -217 -626 -219 -216 -1 -285 23 -329 115 -14 29 -30 81 -36
117 -6 40 -10 329 -10 748 l0 682 243 0 c161 0 274 -5 339 -15z"/>
<path d="M18325 4775 c-16 -7 -69 -23 -116 -35 l-86 -22 -11 -67 c-35 -211
-156 -432 -295 -539 -101 -79 -279 -142 -397 -142 l-40 0 0 -50 0 -50 225 0
225 0 0 -842 c0 -1029 7 -1164 70 -1330 29 -78 109 -189 169 -232 122 -90 286
-133 471 -123 254 14 404 118 529 365 28 56 91 230 91 252 0 7 -91 43 -95 37
-1 -1 -15 -41 -32 -90 -102 -286 -269 -407 -478 -347 -67 19 -134 86 -160 160
-19 53 -20 89 -23 1103 l-3 1047 346 0 346 0 -3 48 -3 47 -342 3 -343 2 0 410
c0 226 -3 410 -7 409 -5 0 -21 -7 -38 -14z"/>
<path d="M6066 4562 c-3 -5 -35 -127 -71 -273 -36 -145 -68 -272 -71 -282 -5
-16 1 -18 73 -15 l78 3 112 275 c61 151 112 281 112 288 1 9 -28 12 -113 12
-63 0 -117 -4 -120 -8z"/>
<path d="M10434 4026 c-164 -31 -288 -80 -412 -163 -361 -240 -550 -702 -529
-1293 7 -177 23 -289 63 -428 130 -452 457 -735 914 -791 480 -60 860 148
1071 586 21 45 39 87 39 93 0 9 -90 55 -95 48 0 -2 -20 -36 -44 -76 -147 -252
-366 -383 -646 -384 -94 -1 -121 3 -183 25 -274 96 -457 343 -526 706 -21 112
-30 308 -21 464 l7 127 749 0 749 0 0 88 c0 168 -37 373 -93 511 -95 234 -289
401 -546 468 -79 21 -125 26 -261 29 -111 2 -188 -1 -236 -10z m325 -117 c166
-83 269 -347 288 -736 l6 -133 -495 0 -494 0 8 78 c56 523 256 820 554 822 60
0 81 -5 133 -31z"/>
<path d="M12850 4025 c-250 -40 -462 -137 -600 -275 -89 -89 -114 -148 -115
-270 0 -82 4 -103 26 -150 14 -30 38 -70 54 -88 112 -133 391 -110 492 41 59
88 65 220 17 324 -27 56 -111 137 -167 158 -26 10 -46 23 -44 29 8 23 105 87
162 106 148 48 367 53 477 11 70 -27 145 -93 181 -158 48 -90 57 -154 57 -431
0 -232 -2 -256 -20 -291 -49 -96 -148 -148 -526 -275 -405 -136 -548 -208
-671 -339 -117 -126 -157 -234 -157 -422 1 -139 18 -215 71 -318 63 -120 175
-211 325 -265 68 -24 85 -26 248 -27 156 0 183 2 250 23 162 51 305 154 416
299 l62 82 7 -42 c30 -197 86 -280 232 -338 53 -21 74 -24 223 -23 186 0 221
8 347 83 130 76 139 92 95 148 l-17 23 -59 -39 c-125 -83 -225 -74 -268 24
-10 24 -14 212 -18 895 -6 931 -8 954 -61 1105 -77 215 -266 355 -539 400
-116 18 -361 18 -480 0z m540 -1609 l0 -495 -60 -76 c-136 -171 -321 -256
-491 -225 -193 35 -299 184 -299 418 1 220 92 389 279 515 41 28 152 91 246
140 208 110 236 127 283 177 20 21 38 39 40 39 1 1 2 -221 2 -493z"/>
<path d="M15305 4013 c-145 -37 -268 -48 -553 -48 l-282 0 0 -46 0 -46 58 -7
c142 -16 220 -72 262 -187 l24 -64 6 -825 c6 -686 10 -841 23 -921 40 -240
121 -361 300 -449 127 -62 188 -74 362 -74 180 1 257 18 410 93 158 77 270
190 362 366 l42 80 1 -266 0 -266 101 23 c150 34 351 48 587 41 l202 -7 0 49
0 48 -57 6 c-86 10 -128 24 -175 60 -51 39 -92 117 -107 202 -7 41 -11 423
-11 1155 l0 1093 -32 -6 c-18 -3 -87 -16 -153 -28 -107 -20 -153 -23 -418 -23
l-297 -1 0 -45 0 -46 80 -12 c167 -24 235 -94 266 -277 13 -70 14 -201 12
-762 l-4 -678 -26 -97 c-76 -277 -259 -477 -476 -519 -70 -13 -195 -7 -255 12
-82 27 -151 117 -179 234 -8 36 -13 358 -17 1151 l-6 1100 -50 -13z"/>
<path d="M19140 3923 l0 -50 58 -16 c89 -25 142 -65 197 -147 37 -55 168 -355
533 -1218 l484 -1145 -82 -221 c-99 -266 -137 -341 -212 -421 -77 -83 -147
-117 -253 -123 -78 -4 -80 -4 -55 14 115 80 161 189 131 311 -50 197 -356 259
-512 103 -75 -75 -98 -184 -63 -300 29 -97 143 -191 265 -219 74 -17 228 -13
311 8 140 36 215 86 294 196 106 150 194 378 629 1631 178 512 339 966 359
1009 64 138 144 223 239 254 36 12 37 14 37 59 l0 47 -405 0 -405 0 0 -46 0
-46 58 -7 c238 -27 344 -163 302 -387 -15 -77 -382 -1181 -390 -1172 -9 10
-594 1453 -621 1530 -11 32 -22 85 -25 118 -5 52 -3 65 18 94 12 19 37 43 53
52 30 18 154 39 226 39 l39 0 0 52 0 51 -97 -6 c-340 -23 -584 -28 -791 -18
-119 6 -241 14 -269 17 l-53 7 0 -50z"/>
<path d="M13047 1150 c-29 -41 8 -88 59 -76 27 7 43 50 27 75 -16 25 -68 26
-86 1z"/>
<path d="M7003 1109 c-29 -28 -53 -52 -53 -55 0 -2 16 -4 36 -4 28 0 50 11
100 51 35 28 64 53 64 55 0 2 -21 4 -47 4 -44 0 -53 -5 -100 -51z"/>
<path d="M11580 870 l0 -290 40 0 c36 0 40 2 40 25 l0 26 30 -23 c45 -33 152
-38 207 -9 79 40 119 113 111 206 -6 69 -35 123 -87 160 -39 27 -50 30 -119
30 -64 0 -82 -4 -109 -23 l-33 -23 0 105 0 106 -40 0 -40 0 0 -290z m276 44
c37 -18 74 -82 74 -128 0 -73 -62 -136 -133 -136 -78 0 -137 58 -137 135 0
109 99 175 196 129z"/>
<path d="M12600 870 l0 -290 40 0 40 0 0 290 0 290 -40 0 -40 0 0 -290z"/>
<path d="M12830 870 l0 -290 40 0 40 0 0 290 0 290 -40 0 -40 0 0 -290z"/>
<path d="M6270 856 l0 -276 40 0 39 0 3 83 3 82 80 2 80 3 59 -85 c59 -85 59
-85 102 -85 24 0 44 3 44 6 0 3 -28 44 -61 92 -37 51 -57 88 -50 90 26 9 75
58 87 89 8 18 14 56 14 85 0 71 -31 125 -90 158 -42 23 -57 25 -197 28 l-153
4 0 -276z m265 193 c55 -14 85 -46 92 -96 12 -92 -45 -133 -186 -133 l-91 0 0
113 c0 63 3 117 7 120 10 11 130 8 178 -4z"/>
<path d="M16720 1045 c0 -45 0 -45 -35 -45 -33 0 -35 -2 -35 -35 0 -33 2 -35
35 -35 l35 0 0 -132 c0 -115 3 -137 20 -166 24 -39 54 -52 119 -52 61 0 85 17
76 52 -7 25 -9 27 -54 21 -75 -9 -81 3 -81 153 l0 124 61 0 60 0 -3 33 c-3 32
-4 32 -60 35 l-58 3 0 44 0 45 -40 0 -40 0 0 -45z"/>
<path d="M6909 977 c-24 -13 -57 -43 -74 -66 -27 -38 -30 -51 -30 -114 0 -88
23 -139 84 -182 35 -24 54 -30 112 -33 76 -5 143 14 173 47 15 17 15 20 -4 44
l-21 26 -36 -25 c-77 -52 -190 -18 -225 68 -7 17 3 18 157 18 100 0 166 4 170
10 11 18 -15 116 -41 151 -57 78 -176 103 -265 56z m171 -69 c19 -13 40 -38
47 -55 l13 -33 -130 0 c-71 0 -130 2 -130 5 0 4 7 19 15 36 35 66 124 88 185
47z"/>
<path d="M7353 981 c-46 -22 -73 -62 -73 -111 0 -65 35 -92 153 -116 101 -21
133 -55 85 -88 -31 -22 -123 -20 -175 4 l-43 19 -15 -22 c-22 -32 -19 -45 18
-64 40 -21 181 -30 229 -14 48 16 79 52 85 100 10 73 -30 108 -147 130 -80 15
-112 34 -108 64 6 44 103 62 175 32 19 -8 37 -15 38 -15 7 0 26 60 21 68 -9
15 -89 32 -148 32 -30 0 -71 -9 -95 -19z"/>
<path d="M7789 977 c-24 -13 -57 -43 -74 -66 -27 -38 -30 -51 -30 -114 0 -88
23 -139 84 -182 35 -24 54 -30 112 -33 76 -5 143 14 173 47 15 17 15 20 -4 44
l-21 26 -36 -25 c-77 -52 -190 -18 -225 68 -7 17 3 18 157 18 100 0 166 4 170
10 11 18 -15 116 -41 151 -57 78 -176 103 -265 56z m171 -69 c19 -13 40 -38
47 -55 l13 -33 -130 0 c-71 0 -130 2 -130 5 0 4 7 19 15 36 35 66 124 88 185
47z"/>
<path d="M8200 791 l0 -211 40 0 40 0 0 120 c0 167 19 208 103 219 40 6 42 7
42 41 0 35 0 35 -43 34 -27 0 -53 -9 -72 -22 l-29 -22 -3 23 c-2 18 -10 23
-40 25 l-38 3 0 -210z"/>
<path d="M8472 983 c3 -10 43 -105 89 -210 l84 -193 41 0 c24 0 44 5 47 13 3
6 42 95 87 197 45 102 84 191 87 198 4 10 -5 13 -37 10 l-43 -3 -66 -152 c-36
-83 -68 -154 -71 -157 -3 -3 -36 67 -74 154 l-68 160 -40 0 c-34 0 -40 -3 -36
-17z"/>
<path d="M9039 977 c-24 -13 -57 -43 -74 -66 -27 -38 -30 -51 -30 -114 0 -88
23 -139 84 -182 35 -24 54 -30 112 -33 76 -5 143 14 173 47 15 17 15 20 -4 44
l-21 26 -36 -25 c-77 -52 -190 -18 -225 68 -7 17 3 18 157 18 100 0 166 4 170
10 11 18 -15 116 -41 151 -57 78 -176 103 -265 56z m171 -69 c19 -13 40 -38
47 -55 l13 -33 -130 0 c-71 0 -130 2 -130 5 0 4 7 19 15 36 35 66 124 88 185
47z"/>
<path d="M9410 965 l0 -34 116 -3 117 -3 -117 -144 c-86 -108 -116 -152 -116
-173 l0 -28 175 0 175 0 0 35 0 34 -120 3 -119 3 114 142 c91 112 115 148 115
172 l0 31 -170 0 -170 0 0 -35z"/>
<path d="M10339 977 c-24 -13 -57 -43 -74 -66 -27 -38 -30 -51 -30 -114 0 -88
23 -139 84 -182 35 -24 54 -30 112 -33 76 -5 143 14 173 47 15 17 15 20 -4 44
l-21 26 -36 -25 c-77 -52 -190 -18 -225 68 -7 17 3 18 157 18 100 0 166 4 170
10 11 18 -15 116 -41 151 -57 78 -176 103 -265 56z m171 -69 c19 -13 40 -38
47 -55 l13 -33 -130 0 c-71 0 -130 2 -130 5 0 4 7 19 15 36 35 66 124 88 185
47z"/>
<path d="M10750 791 l0 -211 40 0 40 0 0 128 c0 105 3 133 19 162 25 48 77 68
131 51 61 -18 70 -45 70 -206 l0 -135 39 0 39 0 4 133 c3 149 13 175 73 204
46 22 100 9 129 -30 18 -25 21 -45 24 -168 l4 -139 39 0 39 0 0 133 c0 187
-19 240 -97 273 -66 28 -183 7 -222 -39 -12 -15 -15 -15 -32 7 -40 51 -170 61
-229 18 l-29 -22 -3 23 c-2 18 -10 23 -40 25 l-38 3 0 -210z"/>
<path d="M12189 977 c-24 -13 -57 -43 -74 -66 -27 -38 -30 -51 -30 -114 0 -88
23 -139 84 -182 35 -24 54 -30 112 -33 76 -5 143 14 173 47 15 17 15 20 -4 44
l-21 26 -36 -25 c-77 -52 -190 -18 -225 68 -7 17 3 18 157 18 100 0 166 4 170
10 11 18 -15 116 -41 151 -57 78 -176 103 -265 56z m171 -69 c19 -13 40 -38
47 -55 l13 -33 -130 0 c-71 0 -130 2 -130 5 0 4 7 19 15 36 35 66 124 88 185
47z"/>
<path d="M13050 790 l0 -210 40 0 40 0 0 210 0 210 -40 0 -40 0 0 -210z"/>
<path d="M13313 981 c-46 -22 -73 -62 -73 -111 0 -65 35 -92 153 -116 101 -21
133 -55 85 -88 -31 -22 -123 -20 -175 4 l-43 19 -15 -22 c-22 -32 -19 -45 18
-64 40 -21 181 -30 229 -14 48 16 79 52 85 100 10 73 -30 108 -147 130 -80 15
-112 34 -108 64 6 44 103 62 175 32 19 -8 37 -15 38 -15 7 0 26 60 21 68 -9
15 -89 32 -148 32 -30 0 -71 -9 -95 -19z"/>
<path d="M13703 981 c-46 -22 -73 -62 -73 -111 0 -65 35 -92 153 -116 101 -21
133 -55 85 -88 -31 -22 -123 -20 -175 4 l-43 19 -15 -22 c-22 -32 -19 -45 18
-64 40 -21 181 -30 229 -14 48 16 79 52 85 100 10 73 -30 108 -147 130 -80 15
-112 34 -108 64 6 44 103 62 175 32 19 -8 37 -15 38 -15 7 0 26 60 21 68 -9
15 -89 32 -148 32 -30 0 -71 -9 -95 -19z"/>
<path d="M14139 977 c-24 -13 -57 -43 -74 -66 -27 -38 -30 -51 -30 -114 0 -88
23 -139 84 -182 35 -24 54 -30 112 -33 76 -5 143 14 173 47 15 17 15 20 -4 44
l-21 26 -36 -25 c-77 -52 -190 -18 -225 68 -7 17 3 18 157 18 100 0 166 4 170
10 11 18 -15 116 -41 151 -57 78 -176 103 -265 56z m171 -69 c19 -13 40 -38
47 -55 l13 -33 -130 0 c-71 0 -130 2 -130 5 0 4 7 19 15 36 35 66 124 88 185
47z"/>
<path d="M14510 965 l0 -34 116 -3 117 -3 -117 -144 c-86 -108 -116 -152 -116
-173 l0 -28 175 0 175 0 0 35 0 34 -120 3 -119 3 114 142 c91 112 115 148 115
172 l0 31 -170 0 -170 0 0 -35z"/>
<path d="M15370 716 l0 -286 40 0 40 0 0 100 0 101 30 -23 c45 -33 152 -38
207 -9 79 40 119 113 111 206 -6 69 -35 123 -87 160 -39 27 -50 30 -119 30
-64 0 -82 -4 -109 -23 l-32 -22 -3 22 c-2 19 -10 24 -40 26 l-38 3 0 -285z
m297 183 c52 -48 65 -115 36 -176 -43 -92 -180 -98 -233 -10 -41 66 -15 166
50 200 46 24 112 18 147 -14z"/>
<path d="M15945 984 c-58 -22 -69 -35 -54 -67 14 -31 21 -33 54 -11 13 9 51
18 83 21 51 5 61 3 85 -18 15 -13 30 -39 33 -56 l7 -33 -92 0 c-142 0 -191
-31 -191 -120 0 -54 20 -87 66 -106 50 -21 142 -18 182 6 32 20 32 20 32 0 0
-17 7 -20 40 -20 l40 0 0 143 c0 171 -9 207 -57 244 -31 24 -47 28 -112 30
-49 2 -90 -3 -116 -13z m205 -252 c0 -91 -188 -128 -198 -38 -6 51 20 66 115
66 l83 0 0 -28z"/>
<path d="M16370 791 l0 -211 40 0 40 0 0 120 c0 167 19 208 103 219 40 6 42 7
42 41 0 35 0 35 -43 34 -27 0 -53 -9 -72 -22 l-29 -22 -3 23 c-2 18 -10 23
-40 25 l-38 3 0 -210z"/>
<path d="M17085 984 c-58 -22 -69 -35 -54 -67 14 -31 21 -33 54 -11 13 9 51
18 83 21 51 5 61 3 85 -18 15 -13 30 -39 33 -56 l7 -33 -92 0 c-142 0 -191
-31 -191 -120 0 -54 20 -87 66 -106 50 -21 142 -18 182 6 32 20 32 20 32 0 0
-17 7 -20 40 -20 l40 0 0 143 c0 171 -9 207 -57 244 -31 24 -47 28 -112 30
-49 2 -90 -3 -116 -13z m205 -252 c0 -91 -188 -128 -198 -38 -6 51 20 66 115
66 l83 0 0 -28z"/>
<path d="M17595 981 c-152 -70 -153 -293 0 -362 58 -27 140 -25 199 5 l48 24
-6 -39 c-14 -86 -58 -115 -161 -107 -40 4 -78 14 -101 27 -20 12 -37 21 -38
19 -1 -2 -10 -16 -20 -31 -17 -28 -17 -29 1 -43 35 -26 114 -46 186 -46 79 1
130 18 163 54 47 51 49 63 52 296 l4 222 -41 0 c-37 0 -41 -2 -41 -25 l0 -24
-46 24 c-58 31 -140 33 -199 6z m193 -80 c42 -30 59 -87 43 -140 -32 -108
-202 -121 -253 -20 -10 19 -18 45 -18 59 0 40 32 92 70 112 45 25 116 20 158
-11z"/>
<path d="M18129 977 c-24 -13 -57 -43 -74 -66 -27 -38 -30 -51 -30 -114 0 -88
23 -139 84 -182 35 -24 54 -30 112 -33 76 -5 143 14 173 47 15 17 15 20 -4 44
l-21 26 -36 -25 c-77 -52 -190 -18 -225 68 -7 17 3 18 157 18 100 0 166 4 170
10 11 18 -15 116 -41 151 -57 78 -176 103 -265 56z m171 -69 c19 -13 40 -38
47 -55 l13 -33 -130 0 c-71 0 -130 2 -130 5 0 4 7 19 15 36 35 66 124 88 185
47z"/>
<path d="M18500 965 l0 -34 116 -3 117 -3 -117 -144 c-86 -108 -116 -152 -116
-173 l0 -28 175 0 175 0 0 35 0 34 -120 3 -119 3 114 142 c91 112 115 148 115
172 l0 31 -170 0 -170 0 0 -35z"/>
<path d="M9848 678 c-24 -20 -27 -42 -11 -76 13 -26 13 -40 4 -76 -16 -63 -14
-68 16 -64 23 3 29 12 50 72 28 84 29 117 5 139 -22 20 -43 22 -64 5z"/>
<path d="M14958 678 c-24 -20 -27 -42 -11 -76 13 -26 13 -40 4 -76 -16 -63
-14 -68 16 -64 23 3 29 12 50 72 28 84 29 117 5 139 -22 20 -43 22 -64 5z"/>
</g>
</svg>
