<svg xmlns="http://www.w3.org/2000/svg"
  viewBox="0 0 932 870"
  width="32" height="32"
  preserveAspectRatio="xMidYMid meet">
  <g transform="translate(0,870) scale(0.1,-0.1)" fill="#4a3847" stroke="none">
    <path d="M4275 8290 c-532 -28 -1100 -180 -1580 -425 -244 -125 -446 -254
-685 -438 -134 -103 -489 -460 -599 -601 -482 -619 -769 -1346 -846 -2145 -39
-401 2 -948 101 -1346 123 -494 355 -991 651 -1390 582 -786 1432 -1306 2433
-1489 208 -38 318 -46 644 -46 496 0 810 47 1316 197 331 98 635 217 968 379
l172 84 0 435 c0 257 -4 435 -9 435 -5 0 -24 -19 -42 -43 -101 -130 -247 -264
-468 -431 -173 -130 -309 -210 -494 -291 -165 -73 -526 -198 -556 -193 -17 3
12 64 221 463 132 253 397 777 588 1165 610 1240 1462 2941 1699 3397 127 244
231 450 231 458 0 13 -69 15 -552 17 l-553 3 -6 610 c-3 336 -6 611 -7 612 -5
6 -149 75 -253 122 -480 211 -1012 363 -1491 425 -244 32 -641 48 -883 36z
m663 -371 c149 -16 334 -56 472 -101 230 -77 518 -237 712 -396 78 -64 266
-252 343 -342 119 -140 374 -574 351 -597 -4 -4 -676 -9 -1493 -9 -1321 -1
-1486 -3 -1500 -17 -19 -18 -426 -1365 -419 -1384 4 -9 26 -13 69 -13 73 0 77
3 113 80 96 208 294 375 539 455 178 58 178 58 940 56 637 -2 1296 7 1818 25
168 6 197 5 197 -8 0 -18 -208 -366 -442 -738 -456 -726 -1906 -3148 -2214
-3700 l-109 -195 -51 -3 c-32 -2 -98 8 -175 27 -731 175 -1298 572 -1716 1201
-305 460 -473 946 -550 1595 -25 212 -25 738 0 950 108 907 419 1623 969 2224
294 320 668 583 1046 735 181 73 382 125 577 151 125 16 394 18 523 4z"/>
    <path d="M8166 8265 c-43 -240 -161 -449 -331 -585 -132 -104 -244 -157 -403
-190 -62 -13 -80 -19 -62 -23 14 -3 52 -11 85 -17 157 -32 341 -136 461 -262
136 -144 213 -301 250 -513 7 -39 7 -38 20 37 49 279 229 525 480 655 75 39
205 82 299 99 40 7 40 7 -32 19 -92 16 -161 39 -248 83 -263 130 -450 379
-500 665 -12 72 -12 72 -19 32z"/>
  </g>
</svg>
